# xmcd
#
# Track frame offsets:
#	150
#	12505
#	24497
#	35747
#	46995
#	59942
#	68877
#	80405
#	90950
#	102027
#	112412
#
# Disc length: 1625 seconds
#
# Revision: 4
# Processed by: cddbd v1.5.2PL0 Copyright (c) Steve Scherf et al.
# Submitted via: audiograbber 1.83.01
#
DISCID=9406570b
DTITLE=Glen Campbell - By The Time I Get To Phoenix
DYEAR=1967
DGENRE=Oldies
TTITLE0=By The Time I Get To Phoenix
TTITLE1=Homeward Bound
TTITLE2=Tomorrow Never Comes
TTITLE3=Cold December (In Your Heart)
TTITLE4=My Baby's Gone
TTITLE5=Back In The Race
TTITLE6=Hey Little One
TTITLE7=Bad Seed
TTITLE8=I'll Be Lucky Someday
TTITLE9=You're Young And You'll Forget
TTITLE10=Love Is A Lonesome River
EXTD=
EXTT0=(Jimmy Webb]\nRecorded August 17, 1967
EXTT1=(Paul Simon]\nRecorded October 10, 1967
EXTT2=(Ernest Tubb, Johnny Bond]\nRecorded May 9, 1962
EXTT3=(Alex Hassilev]\nRecorded April 19, 1967
EXTT4=(Hazel Houser]\nRecorded December 15, 1966
EXTT5=(Vic Dana, Glen Campbell]\nRecorded June 20, 1967
EXTT6=(Dorsey Burnette, Bary De Vorzon]\nRecorded August 17, 1967
EXTT7=(Bill Anderson]\nRecorded August 17, 1967
EXTT8=(Dick McBride, Lee Martin, Bob Wills]\nRecorded September 22, 1967
EXTT9=(Jerry Reed]\nRecorded June 20, 1967
EXTT10=(Kella Christian, Glen Campbell]\nRecorded October 10, 1967
PLAYORDER=
